<?xml version="1.0" encoding="utf-8"?>
<!-- Generator: Adobe Illustrator 15.0.0, SVG Export Plug-In . SVG Version: 6.00 Build 0)  -->
<!DOCTYPE svg PUBLIC "-//W3C//DTD SVG 1.1//EN" "http://www.w3.org/Graphics/SVG/1.1/DTD/svg11.dtd">
<svg version="1.1" id="Layer_1" xmlns="http://www.w3.org/2000/svg" xmlns:xlink="http://www.w3.org/1999/xlink" x="0px" y="0px"
	 width="407px" height="595.281px" viewBox="0 0 407 595.281" enable-background="new 0 0 407 595.281" xml:space="preserve">
<path fill="#4D4D4D" d="M380.29,78.913c-81.496,0-147.927,51.363-147.927,147.926c0,96.564,132.175,270.516,132.175,270.516
	c6.164,13.012,24.653,13.012,30.817,0c0,0,132.176-173.951,132.176-270.516C527.531,130.276,461.785,78.913,380.29,78.913z
	 M380.29,287.105c-37.667,0-67.8-30.133-67.8-67.8c0-37.666,30.133-67.8,67.8-67.8c37.666,0,67.8,30.134,67.8,67.8
	C448.09,256.972,417.956,287.105,380.29,287.105z"/>
</svg>
