<?xml version="1.0" encoding="utf-8"?>
<!-- Generator: Adobe Illustrator 15.0.0, SVG Export Plug-In . SVG Version: 6.00 Build 0)  -->
<!DOCTYPE svg PUBLIC "-//W3C//DTD SVG 1.1//EN" "http://www.w3.org/Graphics/SVG/1.1/DTD/svg11.dtd">
<svg version="1.1" id="Layer_1" xmlns="http://www.w3.org/2000/svg" xmlns:xlink="http://www.w3.org/1999/xlink" x="0px" y="0px"
	 width="351px" height="459px" viewBox="0 0 351 459" enable-background="new 0 0 351 459" xml:space="preserve">
<g>
	<path fill="#005486" d="M196.691,283.303c6.717-10.329,6.717-23.246,0-33.06L89.241,92.165
		c-11.882,5.683-19.631,17.565-19.631,31.513v286.192c0,13.948,8.266,25.828,19.631,31.514L196.691,283.303z"/>
	<path fill="#005486" d="M293.812,92.683c-5.167-2.583-10.849-4.133-17.049-4.133H110.42l75.939,112.101L293.812,92.683z"/>
	<g>
		<path fill="#005486" d="M187.91,330.832L110.42,445h166.86c7.231,0,13.946-2.067,19.629-5.684L187.91,330.832z"/>
		<path fill="#005486" d="M197.209,216.665l15.497,22.729c5.682,8.267,8.266,18.083,8.266,27.38c0,9.298-2.584,19.113-8.266,27.38
			l-13.948,20.146l110.033,110.034c2.067-4.649,3.101-9.298,3.101-14.981V123.678c0-6.199-1.55-12.399-4.648-17.564L197.209,216.665
			z"/>
	</g>
</g>
</svg>
