<?xml version="1.0" encoding="utf-8"?>
<!-- Generator: Adobe Illustrator 15.0.0, SVG Export Plug-In . SVG Version: 6.00 Build 0)  -->
<!DOCTYPE svg PUBLIC "-//W3C//DTD SVG 1.1//EN" "http://www.w3.org/Graphics/SVG/1.1/DTD/svg11.dtd">
<svg version="1.1" id="Ebene_1" xmlns="http://www.w3.org/2000/svg" xmlns:xlink="http://www.w3.org/1999/xlink" x="0px" y="0px"
	 width="107.333px" height="24.126px" viewBox="-0.948 -5.745 107.333 24.126"
	 enable-background="new -0.948 -5.745 107.333 24.126" xml:space="preserve">
<g>
	<path fill="#58595B" d="M46.073,12.637c0,0.784-0.261,1.392-0.783,1.824c-0.521,0.434-1.256,0.649-2.203,0.649
		c-0.394,0-0.74-0.027-1.039-0.081s-0.58-0.144-0.844-0.27v-0.947c0.602,0.312,1.232,0.468,1.895,0.468
		c0.602,0,1.078-0.14,1.432-0.421c0.353-0.28,0.529-0.665,0.529-1.155c0-0.29-0.098-0.546-0.293-0.767s-0.558-0.481-1.089-0.782
		c-0.562-0.316-0.95-0.632-1.167-0.947c-0.217-0.316-0.326-0.689-0.326-1.12c0-0.694,0.245-1.26,0.735-1.696
		s1.135-0.655,1.934-0.655c0.368,0,0.71,0.036,1.028,0.106c0.316,0.07,0.652,0.191,1.005,0.362L46.518,8.04
		c-0.244-0.141-0.52-0.252-0.824-0.334c-0.305-0.081-0.585-0.122-0.841-0.122c-0.498,0-0.897,0.129-1.2,0.387
		c-0.303,0.259-0.455,0.608-0.455,1.051c0,0.2,0.031,0.372,0.096,0.515c0.062,0.144,0.162,0.278,0.301,0.404
		c0.137,0.126,0.4,0.303,0.791,0.529c0.545,0.327,0.914,0.583,1.105,0.769s0.336,0.391,0.435,0.616
		C46.024,12.079,46.073,12.34,46.073,12.637z"/>
	<path fill="#58595B" d="M49.531,15.111c-0.72,0-1.279-0.198-1.676-0.596c-0.398-0.397-0.597-0.959-0.597-1.683
		c0-0.743,0.138-1.429,0.413-2.056c0.273-0.628,0.654-1.117,1.139-1.469c0.484-0.351,1.029-0.526,1.635-0.526
		c0.51,0,1.007,0.095,1.494,0.284l-0.263,0.786c-0.445-0.189-0.853-0.284-1.22-0.284c-0.416,0-0.796,0.142-1.14,0.426
		s-0.612,0.68-0.808,1.187s-0.293,1.058-0.293,1.652c0,0.476,0.124,0.845,0.371,1.108c0.246,0.264,0.588,0.396,1.021,0.396
		c0.268,0,0.521-0.037,0.758-0.111c0.238-0.074,0.473-0.161,0.703-0.262v0.797C50.61,14.993,50.097,15.111,49.531,15.111z"/>
	<path fill="#58595B" d="M55.911,14.999l0.825-3.855c0.066-0.349,0.1-0.6,0.1-0.752c0-0.55-0.273-0.824-0.818-0.824
		c-0.331,0-0.653,0.109-0.967,0.328c-0.314,0.22-0.591,0.538-0.83,0.956c-0.24,0.418-0.421,0.922-0.544,1.513l-0.562,2.635h-0.937
		l1.839-8.669h0.937c-0.067,0.305-0.131,0.6-0.192,0.886s-0.124,0.577-0.189,0.872s-0.136,0.604-0.212,0.928
		s-0.164,0.674-0.265,1.053h0.062c0.35-0.457,0.693-0.783,1.033-0.98s0.695-0.295,1.066-0.295c0.487,0,0.863,0.134,1.129,0.4
		c0.266,0.268,0.398,0.646,0.398,1.137c0,0.23-0.043,0.539-0.129,0.925c-0.145,0.717-0.414,1.965-0.807,3.744H55.911z"/>
	<path fill="#58595B" d="M61.176,15.111c-0.684,0-1.22-0.202-1.609-0.607c-0.391-0.404-0.586-0.966-0.586-1.683
		c0-0.698,0.139-1.367,0.416-2.008c0.276-0.641,0.643-1.14,1.1-1.496s0.961-0.535,1.51-0.535c0.568,0,0.996,0.124,1.281,0.371
		c0.287,0.247,0.43,0.591,0.43,1.033c0,0.668-0.309,1.193-0.925,1.574c-0.616,0.38-1.499,0.57-2.646,0.57h-0.185l-0.021,0.446
		c0,0.486,0.114,0.866,0.342,1.139c0.229,0.273,0.583,0.41,1.062,0.41c0.233,0,0.475-0.034,0.721-0.101
		c0.247-0.066,0.555-0.189,0.922-0.368v0.813c-0.349,0.164-0.656,0.278-0.924,0.343C61.795,15.078,61.5,15.111,61.176,15.111z
		 M61.951,9.578c-0.383,0-0.742,0.175-1.078,0.523c-0.337,0.35-0.594,0.834-0.771,1.454h0.066c0.847,0,1.496-0.11,1.947-0.331
		s0.677-0.541,0.677-0.961c0-0.197-0.067-0.36-0.204-0.49C62.453,9.644,62.24,9.578,61.951,9.578z"/>
	<path fill="#58595B" d="M67.098,15.111c-0.359,0-0.676-0.093-0.946-0.278c-0.271-0.186-0.481-0.446-0.63-0.78h-0.056l-0.022,0.212
		c-0.011,0.093-0.03,0.223-0.059,0.39c-0.027,0.167-0.24,1.196-0.638,3.087h-0.925l1.872-8.848h0.774l-0.145,1.165h0.045
		c0.664-0.844,1.355-1.265,2.072-1.265c0.508,0,0.91,0.181,1.203,0.543s0.439,0.87,0.439,1.523c0,0.788-0.127,1.51-0.384,2.167
		c-0.257,0.658-0.61,1.17-1.063,1.535C68.183,14.928,67.67,15.111,67.098,15.111z M68.135,9.568c-0.357,0-0.72,0.176-1.09,0.529
		c-0.369,0.353-0.662,0.796-0.88,1.331s-0.325,1.083-0.325,1.644c0,0.408,0.103,0.722,0.309,0.938
		c0.206,0.218,0.504,0.326,0.895,0.326c0.367,0,0.71-0.15,1.027-0.451c0.318-0.301,0.573-0.729,0.766-1.284
		c0.193-0.556,0.291-1.145,0.291-1.769C69.127,9.989,68.796,9.568,68.135,9.568z"/>
	<path fill="#58595B" d="M73.684,15.111c-0.359,0-0.676-0.093-0.947-0.278s-0.48-0.446-0.629-0.78h-0.057l-0.021,0.212
		c-0.012,0.093-0.031,0.223-0.059,0.39s-0.24,1.196-0.639,3.087h-0.924l1.871-8.848h0.775l-0.146,1.165h0.045
		c0.665-0.844,1.355-1.265,2.072-1.265c0.509,0,0.91,0.181,1.204,0.543c0.293,0.362,0.439,0.87,0.439,1.523
		c0,0.788-0.128,1.51-0.385,2.167c-0.256,0.658-0.61,1.17-1.063,1.535C74.768,14.928,74.256,15.111,73.684,15.111z M74.721,9.568
		c-0.357,0-0.721,0.176-1.09,0.529c-0.369,0.353-0.663,0.796-0.881,1.331c-0.217,0.535-0.325,1.083-0.325,1.644
		c0,0.408,0.103,0.722,0.31,0.938c0.205,0.218,0.504,0.326,0.894,0.326c0.368,0,0.71-0.15,1.028-0.451
		c0.317-0.301,0.572-0.729,0.766-1.284s0.29-1.145,0.29-1.769C75.712,9.989,75.381,9.568,74.721,9.568z"/>
	<path fill="#58595B" d="M80.793,8.781c0.342,0,0.646,0.092,0.913,0.276c0.268,0.184,0.476,0.448,0.624,0.794h0.062l0.373-0.959
		h0.708l-1.299,6.106h-0.74l0.145-1.164h-0.045c-0.664,0.851-1.365,1.275-2.1,1.275c-0.517,0-0.922-0.184-1.215-0.552
		c-0.293-0.367-0.44-0.871-0.44-1.51c0-0.772,0.132-1.489,0.396-2.15s0.628-1.179,1.092-1.555
		C79.731,8.969,80.239,8.781,80.793,8.781z M79.735,14.336c0.359,0,0.719-0.172,1.074-0.516c0.357-0.343,0.646-0.791,0.869-1.343
		c0.224-0.551,0.335-1.104,0.335-1.657c0-0.382-0.104-0.687-0.312-0.913c-0.209-0.227-0.481-0.34-0.819-0.34
		c-0.387,0-0.746,0.159-1.078,0.479c-0.333,0.319-0.593,0.752-0.782,1.299c-0.189,0.546-0.285,1.121-0.285,1.727
		c0,0.424,0.088,0.74,0.262,0.95C79.173,14.232,79.418,14.336,79.735,14.336z"/>
	<path fill="#58595B" d="M86.498,15.111c-0.721,0-1.279-0.198-1.678-0.596c-0.396-0.397-0.596-0.959-0.596-1.683
		c0-0.743,0.138-1.429,0.412-2.056c0.275-0.628,0.654-1.117,1.14-1.469c0.485-0.351,1.03-0.526,1.636-0.526
		c0.508,0,1.006,0.095,1.492,0.284l-0.262,0.786c-0.445-0.189-0.852-0.284-1.22-0.284c-0.416,0-0.796,0.142-1.14,0.426
		s-0.613,0.68-0.808,1.187c-0.195,0.507-0.292,1.058-0.292,1.652c0,0.476,0.123,0.845,0.369,1.108
		c0.248,0.264,0.588,0.396,1.023,0.396c0.268,0,0.52-0.037,0.758-0.111c0.237-0.074,0.471-0.161,0.701-0.262v0.797
		C87.574,14.993,87.063,15.111,86.498,15.111z"/>
	<path fill="#58595B" d="M92.877,14.999l0.824-3.855c0.066-0.349,0.101-0.6,0.101-0.752c0-0.55-0.272-0.824-0.819-0.824
		c-0.33,0-0.652,0.109-0.967,0.328c-0.313,0.22-0.59,0.538-0.83,0.956c-0.239,0.418-0.42,0.922-0.543,1.513l-0.562,2.635h-0.936
		l1.838-8.669h0.936c-0.066,0.305-0.131,0.6-0.191,0.886c-0.062,0.286-0.125,0.577-0.189,0.872s-0.136,0.604-0.212,0.928
		s-0.164,0.674-0.265,1.053h0.062c0.349-0.457,0.693-0.783,1.033-0.98s0.696-0.295,1.067-0.295c0.486,0,0.862,0.134,1.128,0.4
		c0.266,0.268,0.398,0.646,0.398,1.137c0,0.23-0.043,0.539-0.128,0.925c-0.145,0.717-0.414,1.965-0.809,3.744H92.877z"/>
</g>
<polygon fill="#58595B" points="-0.781,-2.148 -0.781,15.208 9.39,15.208 9.39,12.164 2.396,12.164 2.396,8.044 9.2,8.044 
	9.2,5.014 2.396,5.014 2.396,0.895 9.39,0.895 9.39,-2.148 "/>
<g>
	<defs>
		<rect id="SVGID_1_" x="-0.781" y="-5.25" width="119.518" height="26.172"/>
	</defs>
	<clipPath id="SVGID_2_">
		<use xlink:href="#SVGID_1_"  overflow="visible"/>
	</clipPath>
	<path clip-path="url(#SVGID_2_)" fill="#58595B" d="M14.917-5.25l-0.543,3.102H9.969v3.043h3.866l-2.509,14.368h3.411l1.815-10.394
		h0.001l0.694-3.975h3.081c-1.246,1.604-1.947,3.679-1.947,5.826c0,4.588,3.166,8.86,8.109,8.86c4.586,0,8-3.18,8.133-9.521h-7.69
		v2.907h3.987c-0.287,1.614-1.528,3.567-4.207,3.567c-2.994,0-4.877-2.749-4.877-5.814c0-3.636,2.039-5.816,4.654-5.816
		c2.328,0,3.524,0.999,4.12,2.5l3.479-0.229c-0.609-1.79-2.09-5.207-7.365-5.309l0.008-0.016h-8.954l0.54-3.102H14.917z"/>
</g>
</svg>
