<?xml version="1.0" encoding="utf-8"?>
<!-- Generator: Adobe Illustrator 15.0.0, SVG Export Plug-In . SVG Version: 6.00 Build 0)  -->
<!DOCTYPE svg PUBLIC "-//W3C//DTD SVG 1.1//EN" "http://www.w3.org/Graphics/SVG/1.1/DTD/svg11.dtd">
<svg version="1.1" id="Layer_1" xmlns="http://www.w3.org/2000/svg" xmlns:xlink="http://www.w3.org/1999/xlink" x="0px" y="0px"
	 width="351px" height="459px" viewBox="0 0 351 459" enable-background="new 0 0 351 459" xml:space="preserve">
<path fill="#005486" d="M253.807,29.887H97.248c-16.668,0-30.359,15.478-30.359,34.525v348.239
	c0,19.049,13.691,34.526,30.359,34.526h156.559c16.668,0,30.359-15.479,30.359-34.526V64.414
	C284.166,45.365,270.475,29.887,253.807,29.887z M175.824,429.916c-11.904,0-20.834-9.523-20.834-20.835
	c0-11.904,9.523-20.835,20.834-20.835c11.906,0,20.834,9.525,20.834,20.835C196.658,420.391,187.135,429.916,175.824,429.916z
	 M253.807,373.961H97.248c-4.764,0-8.93-4.167-8.93-8.931V81.677c0-4.763,3.572-8.93,8.93-8.93h156.559
	c4.762,0,8.93,4.167,8.93,8.93V365.03C262.736,370.387,258.568,373.961,253.807,373.961z"/>
</svg>
