<?xml version="1.0" encoding="utf-8"?>
<!-- Generator: Adobe Illustrator 15.0.0, SVG Export Plug-In . SVG Version: 6.00 Build 0)  -->
<!DOCTYPE svg PUBLIC "-//W3C//DTD SVG 1.1//EN" "http://www.w3.org/Graphics/SVG/1.1/DTD/svg11.dtd">
<svg version="1.1" id="Layer_1" xmlns="http://www.w3.org/2000/svg" xmlns:xlink="http://www.w3.org/1999/xlink" x="0px" y="0px"
	 width="351px" height="459px" viewBox="0 0 351 459" enable-background="new 0 0 351 459" xml:space="preserve">
<g>
	<path fill="#005486" d="M233.604,306.231c-22.769,11.928-58.004-11.384-79.146-52.039c-21.143-40.657-18.973-82.397,3.793-94.323
		l-47.161-91.071c0,0-24.394,13.009-33.066,25.478c-17.89,26.02-10.301,98.659,33.066,182.142
		c43.367,83.481,97.576,132.27,129.559,132.812c15.179,0.541,40.115-11.927,40.115-11.927L233.604,306.231z"/>
	<path fill="#005486" d="M164.216,149.569l-41.198-80.228c-3.794-7.047-1.085-15.72,5.963-19.515l20.057-10.3
		c7.045-3.795,15.72-1.083,19.515,5.963l41.198,80.771c3.796,7.047,1.085,15.72-5.961,19.515l-20.058,10.3
		C176.686,159.869,168.011,156.616,164.216,149.569z"/>
	<path fill="#005486" d="M285.643,385.377l-41.198-80.229c-3.795-7.046-1.084-15.72,5.963-19.515l20.058-10.301
		c7.046-3.794,15.721-1.083,19.515,5.964l41.199,80.771c3.793,7.047,1.083,15.721-5.964,19.515l-20.058,10.301
		C298.11,395.677,289.437,392.423,285.643,385.377z"/>
</g>
</svg>
