<?xml version="1.0" encoding="utf-8"?>
<!-- Generator: Adobe Illustrator 22.0.0, SVG Export Plug-In . SVG Version: 6.00 Build 0)  -->
<svg version="1.1" id="Layer_1" xmlns="http://www.w3.org/2000/svg" xmlns:xlink="http://www.w3.org/1999/xlink" x="0px" y="0px"
	 viewBox="0 0 100 100" style="enable-background:new 0 0 100 100;" xml:space="preserve">
<style type="text/css">
	.st0{fill:#005486;}
</style>
<g>
	<path class="st0" d="M51.1,53.2c1.3-2,1.3-4.5,0-6.4L30.3,16.2c-2.3,1.1-3.8,3.4-3.8,6.1v55.4c0,2.7,1.6,5,3.8,6.1L51.1,53.2z"/>
	<path class="st0" d="M69.9,16.3c-1-0.5-2.1-0.8-3.3-0.8H34.4l14.7,21.7L69.9,16.3z"/>
	<g>
		<path class="st0" d="M49.4,62.4L34.4,84.5h32.3c1.4,0,2.7-0.4,3.8-1.1L49.4,62.4z"/>
		<path class="st0" d="M51.2,40.3l3,4.4c1.1,1.6,1.6,3.5,1.6,5.3c0,1.8-0.5,3.7-1.6,5.3l-2.7,3.9l21.3,21.3c0.4-0.9,0.6-1.8,0.6-2.9
			V22.3c0-1.2-0.3-2.4-0.9-3.4L51.2,40.3z"/>
	</g>
</g>
</svg>
