<?xml version="1.0" encoding="utf-8"?>
<!-- Generator: Adobe Illustrator 22.0.0, SVG Export Plug-In . SVG Version: 6.00 Build 0)  -->
<svg version="1.1" id="Layer_1" xmlns="http://www.w3.org/2000/svg" xmlns:xlink="http://www.w3.org/1999/xlink" x="0px" y="0px"
	 viewBox="0 0 100 100" style="enable-background:new 0 0 100 100;" xml:space="preserve">
<style type="text/css">
	.st0{fill:#005486;}
</style>
<path class="st0" d="M17.4,79.6c0.2-0.7,0.7-2.5,1.9-4.2c1.2-1.6,2.7-2.5,3.5-2.9c0.7-0.4,1.3-0.6,1.8-0.9c0.9-0.4,1.7-0.7,3.2-1.2
	c0.5-0.2,0.9-0.3,1.6-0.5c0.7-0.2,1.2-0.4,2.3-0.7c1.5-0.4,1.8-0.5,2.7-0.8c0.3-0.1,0.8-0.3,1.4-0.4c0.8-0.3,1.3-0.4,1.9-0.7
	c0.8-0.3,1.2-0.5,1.6-0.8c0.7-0.5,1.1-1,1.2-1.2c0.2-0.3,0.6-1.2,0.6-2.7v-1.8h-2.2c0,0-11.4-0.3-17.7-5.1c0,0,4-2.1,6.1-7.1
	s2.7-9.7,3-13.6c0.3-3.7,0.3-11,3.2-16.6c3.4-5.1,9.5-4.4,9.5-4.4c0.3-0.5,0.6-0.9,2-1.8c1-0.7,3-1.2,4-1.3c0.1,0,0.1,0,0.2,0
	c0,0,0,0,0,0c0,0,0,0,0,0c0.1,0,0.1,0,0.2,0c3.1,0,4.5,0.2,4.5,0.2s7.3,0.9,10.5,6.6c3.3,5.7,3.2,13.4,3.6,17.3s1,8.7,3,13.6
	s6.1,7.1,6.1,7.1c-6.3,4.8-17.7,5.1-17.7,5.1h-0.5v1.7c0,1.5,0.4,2.5,0.6,2.7c0.1,0.2,0.5,0.7,1.2,1.2c0.5,0.3,0.8,0.5,1.6,0.8
	c0.6,0.3,1.1,0.4,1.9,0.7c0.5,0.2,1,0.3,1.4,0.4c0.9,0.3,1.2,0.4,2.7,0.8c1,0.3,1.6,0.4,2.3,0.7c0.6,0.2,1.1,0.4,1.6,0.5
	c1.5,0.5,2.3,0.8,3.2,1.2c0.5,0.2,1.1,0.5,1.8,0.9c0.8,0.5,2.3,1.3,3.5,2.9c1.3,1.7,1.8,3.5,1.9,4.2c0.1,0.7,0.2,1,0.2,1.5
	c0,0,0,1.5,0,1.5c0,0,0,0.3,0,0.8v2.3c0,1.8-1.5,3.3-3.3,3.3h-59c-1.8,0-3.3-1.5-3.3-3.3v-2.3v-2.3C17.2,80.7,17.2,80.3,17.4,79.6z"
	/>
</svg>
