<?xml version="1.0" encoding="utf-8"?>
<!-- Generator: Adobe Illustrator 22.0.0, SVG Export Plug-In . SVG Version: 6.00 Build 0)  -->
<svg version="1.1" id="Layer_1" xmlns="http://www.w3.org/2000/svg" xmlns:xlink="http://www.w3.org/1999/xlink" x="0px" y="0px"
	 viewBox="0 0 100 100" style="enable-background:new 0 0 100 100;" xml:space="preserve">
<style type="text/css">
	.st0{fill:#005486;}
</style>
<g>
	<path class="st0" d="M78.8,75.3l-0.5,4.9c0,0.4,0.3,0.7,0.7,0.6l5-1.4c0.3-0.1,0.6,0.1,0.7,0.4l0.4,3.1c0,0.3-0.2,0.6-0.5,0.6
		l-4.2,0.3c-0.4,0-0.6,0.5-0.4,0.9l2.8,3.7c0.2,0.3,0.1,0.6-0.2,0.8l-2.8,1.5c-0.3,0.1-0.6,0-0.7-0.2l-1.9-3.8c-0.2-0.4-0.8-0.4-1,0
		l-1.6,3.7c-0.1,0.3-0.5,0.4-0.7,0.3l-2.9-1.5c-0.3-0.1-0.4-0.5-0.2-0.8l2.8-3.7c0.3-0.3,0-0.8-0.4-0.9l-4.2-0.3
		c-0.3,0-0.5-0.3-0.5-0.6l0.5-3.1c0-0.3,0.4-0.5,0.7-0.4l4.8,1.4c0.4,0.1,0.7-0.2,0.7-0.6l-0.5-4.8c0-0.3,0.2-0.6,0.5-0.6h3.2
		C78.6,74.7,78.9,74.9,78.8,75.3z"/>
	<g>
		<path class="st0" d="M66.5,82.5l0.5-3.1c0.2-1.2,1.2-2,2.4-2c0.2,0,0.4,0,0.7,0.1l2.9,0.8l-0.3-2.9c-0.1-0.7,0.1-1.4,0.6-1.9
			c0.5-0.5,1.1-0.8,1.8-0.8h1.2c-0.3-0.8-0.8-1.9-1.5-2.9c-1.2-1.5-2.5-2.3-3.3-2.8c-0.6-0.4-1.2-0.6-1.7-0.8
			c-0.9-0.4-1.6-0.6-3-1.1c-0.5-0.2-0.9-0.3-1.5-0.5c-0.7-0.2-1.2-0.4-2.1-0.6c-1.4-0.4-1.7-0.5-2.6-0.7c-0.3-0.1-0.8-0.2-1.3-0.4
			c-0.7-0.2-1.2-0.4-1.8-0.6c-0.7-0.3-1.1-0.5-1.5-0.7c-0.7-0.5-1-0.9-1.2-1.1c-0.2-0.3-0.6-1.1-0.6-2.6v-1.6h0.5
			c0,0,10.7-0.3,16.6-4.8c0,0-3.7-2-5.7-6.7c-2-4.7-2.5-9.1-2.9-12.8c-0.3-3.6-0.3-10.9-3.4-16.3c-3.1-5.3-9.9-6.2-9.9-6.2
			s-1.3-0.2-4.2-0.2c0,0-0.1,0-0.1,0c0,0,0,0,0,0c0,0,0,0,0,0c-0.1,0-0.1,0-0.2,0c-1,0.1-2.9,0.6-3.8,1.2c-1.3,0.9-1.5,1.2-1.9,1.7
			c0,0-5.8-0.7-9,4.1c-2.7,5.3-2.7,12.1-3,15.6c-0.3,3.6-0.9,8.1-2.9,12.8c-2,4.7-5.7,6.7-5.7,6.7c5.9,4.5,16.6,4.8,16.6,4.8h2.1
			v1.7c0,1.4-0.4,2.3-0.6,2.6c-0.1,0.2-0.5,0.6-1.2,1.1c-0.4,0.3-0.8,0.4-1.5,0.7c-0.6,0.2-1,0.4-1.8,0.6c-0.5,0.2-0.9,0.3-1.3,0.4
			c-0.9,0.3-1.1,0.3-2.6,0.7c-1,0.3-1.5,0.4-2.1,0.6c-0.6,0.2-1,0.3-1.5,0.5c-1.4,0.5-2.2,0.7-3,1.1c-0.5,0.2-1.1,0.5-1.7,0.8
			c-0.8,0.5-2.1,1.2-3.3,2.8c-1.2,1.6-1.7,3.3-1.8,4c-0.1,0.6-0.2,1-0.2,1.4v2.2v2.1c0,1.7,1.4,3.1,3.1,3.1h48.4
			C66.5,82.6,66.5,82.6,66.5,82.5z"/>
	</g>
</g>
</svg>
