<?xml version="1.0" encoding="utf-8"?>
<!-- Generator: Adobe Illustrator 22.0.0, SVG Export Plug-In . SVG Version: 6.00 Build 0)  -->
<svg version="1.1" id="Layer_1" xmlns="http://www.w3.org/2000/svg" xmlns:xlink="http://www.w3.org/1999/xlink" x="0px" y="0px"
	 viewBox="0 0 100 100" style="enable-background:new 0 0 100 100;" xml:space="preserve">
<style type="text/css">
	.st0{fill:#005486;}
</style>
<path class="st0" d="M61.4,15.1H35.1c-2.8,0-5.1,2.6-5.1,5.8v58.5c0,3.2,2.3,5.8,5.1,5.8h26.3c2.8,0,5.1-2.6,5.1-5.8V20.9
	C66.5,17.7,64.2,15.1,61.4,15.1z M48.3,82.3c-2,0-3.5-1.6-3.5-3.5c0-2,1.6-3.5,3.5-3.5c2,0,3.5,1.6,3.5,3.5
	C51.8,80.7,50.2,82.3,48.3,82.3z M61.4,72.9H35.1c-0.8,0-1.5-0.7-1.5-1.5V23.8c0-0.8,0.6-1.5,1.5-1.5h26.3c0.8,0,1.5,0.7,1.5,1.5
	v47.6C62.9,72.3,62.2,72.9,61.4,72.9z"/>
</svg>
