<?xml version="1.0" encoding="utf-8"?>
<!-- Generator: Adobe Illustrator 22.0.0, SVG Export Plug-In . SVG Version: 6.00 Build 0)  -->
<svg version="1.1" id="Layer_1" xmlns="http://www.w3.org/2000/svg" xmlns:xlink="http://www.w3.org/1999/xlink" x="0px" y="0px"
	 viewBox="0 0 100 100" style="enable-background:new 0 0 100 100;" xml:space="preserve">
<style type="text/css">
	.st0{fill:#005486;}
</style>
<g>
	<path class="st0" d="M56,65.2c-4.2,2.2-10.7-2.1-14.6-9.6s-3.5-15.2,0.7-17.4l-8.7-16.8c0,0-4.5,2.4-6.1,4.7
		c-3.3,4.8-1.9,18.2,6.1,33.6s18,24.4,23.9,24.5c2.8,0.1,7.4-2.2,7.4-2.2L56,65.2z"/>
	<path class="st0" d="M43.2,36.3l-7.6-14.8c-0.7-1.3-0.2-2.9,1.1-3.6l3.7-1.9c1.3-0.7,2.9-0.2,3.6,1.1L51.6,32
		c0.7,1.3,0.2,2.9-1.1,3.6l-3.7,1.9C45.5,38.2,43.9,37.6,43.2,36.3z"/>
	<path class="st0" d="M65.6,79.8L58,65c-0.7-1.3-0.2-2.9,1.1-3.6l3.7-1.9c1.3-0.7,2.9-0.2,3.6,1.1L74,75.5c0.7,1.3,0.2,2.9-1.1,3.6
		L69.2,81C67.9,81.7,66.3,81.1,65.6,79.8z"/>
</g>
</svg>
